<svg width="642" height="487" viewBox="0 0 642 487" xmlns="http://www.w3.org/2000/svg" xmlns:xlink="http://www.w3.org/1999/xlink"><title>add-life</title><defs><rect id="b" x="371" width="227" height="442" rx="27"/><filter x="-18.9%" y="-5.2%" width="137.9%" height="119.5%" filterUnits="objectBoundingBox" id="a"><feMorphology radius="1.5" in="SourceAlpha" result="shadowSpreadOuter1"/><feOffset dy="20" in="shadowSpreadOuter1" result="shadowOffsetOuter1"/><feGaussianBlur stdDeviation="12.5" in="shadowOffsetOuter1" result="shadowBlurOuter1"/><feColorMatrix values="0 0 0 0 0.423529412 0 0 0 0 0.458823529 0 0 0 0 0.509803922 0 0 0 0.1 0" in="shadowBlurOuter1"/></filter><filter x="-11.2%" y="-1.2%" width="122.5%" height="111.5%" filterUnits="objectBoundingBox" id="c"><feGaussianBlur stdDeviation="2" in="SourceAlpha" result="shadowBlurInner1"/><feOffset dy="-3" in="shadowBlurInner1" result="shadowOffsetInner1"/><feComposite in="shadowOffsetInner1" in2="SourceAlpha" operator="arithmetic" k2="-1" k3="1" result="shadowInnerInner1"/><feColorMatrix values="0 0 0 0 0.921568627 0 0 0 0 0.941176471 0 0 0 0 0.968627451 0 0 0 1 0" in="shadowInnerInner1"/></filter><rect id="e" width="227" height="442" rx="27"/><filter x="-18.9%" y="-5.2%" width="137.9%" height="119.5%" filterUnits="objectBoundingBox" id="d"><feMorphology radius="1.5" in="SourceAlpha" result="shadowSpreadOuter1"/><feOffset dy="20" in="shadowSpreadOuter1" result="shadowOffsetOuter1"/><feGaussianBlur stdDeviation="12.5" in="shadowOffsetOuter1" result="shadowBlurOuter1"/><feColorMatrix values="0 0 0 0 0.423529412 0 0 0 0 0.458823529 0 0 0 0 0.509803922 0 0 0 0.1 0" in="shadowBlurOuter1"/></filter><filter x="-11.2%" y="-1.2%" width="122.5%" height="111.5%" filterUnits="objectBoundingBox" id="f"><feGaussianBlur stdDeviation="2" in="SourceAlpha" result="shadowBlurInner1"/><feOffset dy="-3" in="shadowBlurInner1" result="shadowOffsetInner1"/><feComposite in="shadowOffsetInner1" in2="SourceAlpha" operator="arithmetic" k2="-1" k3="1" result="shadowInnerInner1"/><feColorMatrix values="0 0 0 0 0.921568627 0 0 0 0 0.941176471 0 0 0 0 0.968627451 0 0 0 1 0" in="shadowInnerInner1"/></filter><rect id="g" width="184.178" height="254" rx="17.441"/><rect id="i" y=".6" width="207" height="422" rx="18"/><rect id="l" width="122" height="37.6" rx="18.8"/><filter x="-26.2%" y="-66.5%" width="152.5%" height="270.2%" filterUnits="objectBoundingBox" id="k"><feMorphology radius="1" in="SourceAlpha" result="shadowSpreadOuter1"/><feOffset dy="7" in="shadowSpreadOuter1" result="shadowOffsetOuter1"/><feGaussianBlur stdDeviation="10.5" in="shadowOffsetOuter1" result="shadowBlurOuter1"/><feColorMatrix values="0 0 0 0 0 0 0 0 0 0 0 0 0 0 0 0 0 0 0.107490166 0" in="shadowBlurOuter1"/></filter><rect id="n" width="12" height="12" rx="4"/><filter x="-83.3%" y="-66.7%" width="266.7%" height="266.7%" filterUnits="objectBoundingBox" id="m"><feMorphology radius="1.5" operator="dilate" in="SourceAlpha" result="shadowSpreadOuter1"/><feOffset dy="2" in="shadowSpreadOuter1" result="shadowOffsetOuter1"/><feGaussianBlur stdDeviation="2.5" in="shadowOffsetOuter1" result="shadowBlurOuter1"/><feComposite in="shadowBlurOuter1" in2="SourceAlpha" operator="out" result="shadowBlurOuter1"/><feColorMatrix values="0 0 0 0 0 0 0 0 0 0 0 0 0 0 0 0 0 0 0.0879315997 0" in="shadowBlurOuter1"/></filter><rect id="p" x="92" width="12" height="12" rx="4"/><filter x="-83.3%" y="-66.7%" width="266.7%" height="266.7%" filterUnits="objectBoundingBox" id="o"><feMorphology radius="1.5" operator="dilate" in="SourceAlpha" result="shadowSpreadOuter1"/><feOffset dy="2" in="shadowSpreadOuter1" result="shadowOffsetOuter1"/><feGaussianBlur stdDeviation="2.5" in="shadowOffsetOuter1" result="shadowBlurOuter1"/><feComposite in="shadowBlurOuter1" in2="SourceAlpha" operator="out" result="shadowBlurOuter1"/><feColorMatrix values="0 0 0 0 0 0 0 0 0 0 0 0 0 0 0 0 0 0 0.0879315997 0" in="shadowBlurOuter1"/></filter><rect id="r" x="184" width="12" height="12" rx="4"/><filter x="-83.3%" y="-66.7%" width="266.7%" height="266.7%" filterUnits="objectBoundingBox" id="q"><feMorphology radius="1.5" operator="dilate" in="SourceAlpha" result="shadowSpreadOuter1"/><feOffset dy="2" in="shadowSpreadOuter1" result="shadowOffsetOuter1"/><feGaussianBlur stdDeviation="2.5" in="shadowOffsetOuter1" result="shadowBlurOuter1"/><feComposite in="shadowBlurOuter1" in2="SourceAlpha" operator="out" result="shadowBlurOuter1"/><feColorMatrix values="0 0 0 0 0 0 0 0 0 0 0 0 0 0 0 0 0 0 0.0879315997 0" in="shadowBlurOuter1"/></filter><rect id="t" x="184" y="252" width="12" height="12" rx="4"/><filter x="-83.3%" y="-66.7%" width="266.7%" height="266.7%" filterUnits="objectBoundingBox" id="s"><feMorphology radius="1.5" operator="dilate" in="SourceAlpha" result="shadowSpreadOuter1"/><feOffset dy="2" in="shadowSpreadOuter1" result="shadowOffsetOuter1"/><feGaussianBlur stdDeviation="2.5" in="shadowOffsetOuter1" result="shadowBlurOuter1"/><feComposite in="shadowBlurOuter1" in2="SourceAlpha" operator="out" result="shadowBlurOuter1"/><feColorMatrix values="0 0 0 0 0 0 0 0 0 0 0 0 0 0 0 0 0 0 0.0879315997 0" in="shadowBlurOuter1"/></filter><rect id="v" y="252" width="12" height="12" rx="4"/><filter x="-83.3%" y="-66.7%" width="266.7%" height="266.7%" filterUnits="objectBoundingBox" id="u"><feMorphology radius="1.5" operator="dilate" in="SourceAlpha" result="shadowSpreadOuter1"/><feOffset dy="2" in="shadowSpreadOuter1" result="shadowOffsetOuter1"/><feGaussianBlur stdDeviation="2.5" in="shadowOffsetOuter1" result="shadowBlurOuter1"/><feComposite in="shadowBlurOuter1" in2="SourceAlpha" operator="out" result="shadowBlurOuter1"/><feColorMatrix values="0 0 0 0 0 0 0 0 0 0 0 0 0 0 0 0 0 0 0.0879315997 0" in="shadowBlurOuter1"/></filter><rect id="x" x="92" y="252" width="12" height="12" rx="4"/><filter x="-83.3%" y="-66.7%" width="266.7%" height="266.7%" filterUnits="objectBoundingBox" id="w"><feMorphology radius="1.5" operator="dilate" in="SourceAlpha" result="shadowSpreadOuter1"/><feOffset dy="2" in="shadowSpreadOuter1" result="shadowOffsetOuter1"/><feGaussianBlur stdDeviation="2.5" in="shadowOffsetOuter1" result="shadowBlurOuter1"/><feComposite in="shadowBlurOuter1" in2="SourceAlpha" operator="out" result="shadowBlurOuter1"/><feColorMatrix values="0 0 0 0 0 0 0 0 0 0 0 0 0 0 0 0 0 0 0.0879315997 0" in="shadowBlurOuter1"/></filter></defs><g fill="none" fill-rule="evenodd"><g transform="translate(22 2)"><use fill="#000" filter="url(#a)" xlink:href="#b"/><use fill="#FFF" xlink:href="#b"/><use fill="#000" filter="url(#c)" xlink:href="#b"/></g><g transform="translate(22 3)"><use fill="#000" filter="url(#d)" xlink:href="#e"/><use fill="#FFF" xlink:href="#e"/><use fill="#000" filter="url(#f)" xlink:href="#e"/><rect stroke="#EBF0F7" fill="#FFF" x="10.5" y="10.5" width="206" height="421" rx="18"/><g fill-rule="nonzero"><g transform="translate(35.22 393.377)" fill="#BEC7D3"><rect width="9.218" height="6.145" rx="2.305"/><rect y="2.403" width="15.363" height="10.754" rx="2.305"/></g><path fill="#FFF" d="M98.649 388h24.582v24.582H98.649z"/><g stroke="#BEC7D3"><g transform="rotate(90 -141.603 260.224)"><rect stroke-width=".768" x="1.92" y=".384" width="1" height="14.595" rx=".5"/><circle stroke-width="1.536" fill="#FFF" stroke-linecap="round" cx="2.305" cy="4.993" r="1.92"/></g><g transform="rotate(90 -137.762 256.383)"><rect stroke-width=".768" x="1.92" y=".384" width="1" height="14.595" rx=".5"/><circle stroke-width="1.536" fill="#FFF" stroke-linecap="round" cx="2.305" cy="10.37" r="1.92"/></g></g><g><path fill="#FFF" d="M166.687 388h24.582v24.582h-24.582z"/><path d="M178.978 406.436c-.108 0-.218-.015-.336-.046a.776.776 0 0 1-.106-.039l-.037-.014a1.03 1.03 0 0 1-.157-.068c-.06-.035-6.278-3.563-6.278-7.616 0-2.57 1.702-4.508 3.958-4.508.996 0 2.134.53 2.956 1.353.822-.822 1.96-1.353 2.955-1.353 2.257 0 3.958 1.938 3.958 4.508 0 4.053-6.216 7.581-6.28 7.616a1.029 1.029 0 0 1-.185.08.733.733 0 0 1-.102.038c-.129.034-.239.05-.346.05z" stroke="#BEC7D3" stroke-width="1.536"/></g></g><g transform="translate(21.86 105.112)"><mask id="h" fill="#fff"><use xlink:href="#g"/></mask><use fill="#DCE3EB" xlink:href="#g"/><path d="M81.728 113.734c.763-1.238 2.442-1.238 3.205-.155L97.45 130.6c.764 1.083 2.137 1.083 2.9.31l5.038-4.952c.915-.773 2.29-.618 2.9.31l14.348 20.424c.915 1.238 0 3.094-1.527 3.094H62.953c-1.526 0-2.442-1.702-1.679-2.94zM112.243 104a7.5 7.5 0 1 1 0 15 7.5 7.5 0 0 1 0-15z" fill="#FFF" fill-rule="nonzero" mask="url(#h)"/></g><circle fill="#DCE3EB" cx="190.58" cy="46.822" r="13.43"/><text font-family="ProximaNova-Bold, Proxima Nova, sans-serif" font-size="24" font-weight="bold" letter-spacing="-.24" fill="#161637"><tspan x="21.164" y="54.061">Gallery</tspan></text><text font-family="ProximaNova-Bold, Proxima Nova, sans-serif" font-size="24" font-weight="bold" letter-spacing="-.24" fill="#CED4D9"><tspan x="21.164" y="81.688">Albums</tspan></text></g><g transform="translate(403 11.4)"><mask id="j" fill="#fff"><use xlink:href="#i"/></mask><rect stroke="#EBF0F7" x=".5" y="1.1" width="206" height="421" rx="18"/><g mask="url(#j)"><rect width="88" height="125" rx="12.8" fill="#DCE3EB" transform="translate(10 374.6)"/><path d="M48.739 431.484c.358-.573 1.147-.573 1.506-.071l5.88 7.886a.89.89 0 0 0 1.363.143l2.367-2.294c.43-.358 1.076-.287 1.362.144l6.742 9.463c.43.574 0 1.434-.717 1.434H39.918c-.717 0-1.148-.789-.79-1.362zm14.536-4.884c1.967 0 3.56 1.564 3.56 3.492 0 1.93-1.593 3.493-3.56 3.493-1.966 0-3.56-1.564-3.56-3.493 0-1.928 1.594-3.492 3.56-3.492z" fill="#FFF" fill-rule="nonzero"/><g transform="translate(108 374.6)"><rect fill="#DCE3EB" width="88" height="125" rx="12.8"/><path d="M38.739 56.884c.358-.573 1.147-.573 1.506-.071l5.88 7.886a.89.89 0 0 0 1.363.143l2.367-2.294c.43-.358 1.076-.287 1.362.144l6.742 9.463c.43.574 0 1.434-.717 1.434H29.918c-.717 0-1.148-.789-.79-1.362zM53.275 52c1.967 0 3.56 1.564 3.56 3.492 0 1.93-1.593 3.493-3.56 3.493-1.966 0-3.56-1.564-3.56-3.493 0-1.928 1.594-3.492 3.56-3.492z" fill="#FFF" fill-rule="nonzero"/></g><g transform="translate(10 100.6)"><rect fill="#DCE3EB" width="88" height="125" rx="12.8"/><path d="M38.739 56.884c.358-.573 1.147-.573 1.506-.071l5.88 7.886a.89.89 0 0 0 1.363.143l2.367-2.294c.43-.358 1.076-.287 1.362.144l6.742 9.463c.43.574 0 1.434-.717 1.434H29.918c-.717 0-1.148-.789-.79-1.362zM53.275 52c1.967 0 3.56 1.564 3.56 3.492 0 1.93-1.593 3.493-3.56 3.493-1.966 0-3.56-1.564-3.56-3.493 0-1.928 1.594-3.492 3.56-3.492z" fill="#FFF" fill-rule="nonzero"/></g><rect width="88" height="125" rx="12.8" fill="#DCE3EB" transform="translate(10 237.6)"/><path d="M48.739 294.484c.358-.573 1.147-.573 1.506-.071l5.88 7.886a.89.89 0 0 0 1.363.143l2.367-2.294c.43-.358 1.076-.287 1.362.144l6.742 9.463c.43.574 0 1.434-.717 1.434H39.918c-.717 0-1.148-.789-.79-1.362zm14.536-4.884c1.967 0 3.56 1.564 3.56 3.492 0 1.93-1.593 3.493-3.56 3.493-1.966 0-3.56-1.564-3.56-3.493 0-1.928 1.594-3.492 3.56-3.492z" fill="#FFF" fill-rule="nonzero"/><g transform="translate(108 237.6)"><rect fill="#DCE3EB" width="88" height="125" rx="12.8"/><path d="M38.739 56.884c.358-.573 1.147-.573 1.506-.071l5.88 7.886a.89.89 0 0 0 1.363.143l2.367-2.294c.43-.358 1.076-.287 1.362.144l6.742 9.463c.43.574 0 1.434-.717 1.434H29.918c-.717 0-1.148-.789-.79-1.362zM53.275 52c1.967 0 3.56 1.564 3.56 3.492 0 1.93-1.593 3.493-3.56 3.493-1.966 0-3.56-1.564-3.56-3.493 0-1.928 1.594-3.492 3.56-3.492z" fill="#FFF" fill-rule="nonzero"/></g><g transform="translate(108 100.6)"><rect fill="#DCE3EB" width="88" height="125" rx="12.8"/><path d="M38.739 56.884c.358-.573 1.147-.573 1.506-.071l5.88 7.886a.89.89 0 0 0 1.363.143l2.367-2.294c.43-.358 1.076-.287 1.362.144l6.742 9.463c.43.574 0 1.434-.717 1.434H29.918c-.717 0-1.148-.789-.79-1.362zM53.275 52c1.967 0 3.56 1.564 3.56 3.492 0 1.93-1.593 3.493-3.56 3.493-1.966 0-3.56-1.564-3.56-3.493 0-1.928 1.594-3.492 3.56-3.492z" fill="#FFF" fill-rule="nonzero"/></g></g></g><text font-family="ProximaNova-Bold, Proxima Nova, sans-serif" font-size="44" font-weight="bold" letter-spacing="-.44" fill="#161637" transform="translate(403 11.4)"><tspan x="16.111" y="68.892">Sky</tspan></text><g transform="translate(445.2 368.6)"><use fill="#000" filter="url(#k)" xlink:href="#l"/><use fill="#FFF" xlink:href="#l"/></g><text font-family="ProximaNova-Bold, Proxima Nova, sans-serif" font-size="11" font-weight="bold" letter-spacing=".3" fill="#161637" transform="translate(445.2 368.6)"><tspan x="37" y="23">loading more</tspan></text><path d="M463.556 381.6a6.8 6.8 0 1 0 9.256.343" stroke="#000" stroke-width="1.6" stroke-linecap="round" stroke-linejoin="round"/><g transform="translate(38 103)"><path stroke="#16B4F2" stroke-width="3" d="M6.5 6.5h183v251H6.5z"/><g stroke-linecap="round"><use fill="#000" filter="url(#m)" xlink:href="#n"/><use stroke="#16B4F2" stroke-width="3" fill="#FFF" xlink:href="#n"/></g><g stroke-linecap="round"><use fill="#000" filter="url(#o)" xlink:href="#p"/><use stroke="#16B4F2" stroke-width="3" fill="#FFF" xlink:href="#p"/></g><g stroke-linecap="round"><use fill="#000" filter="url(#q)" xlink:href="#r"/><use stroke="#16B4F2" stroke-width="3" fill="#FFF" xlink:href="#r"/></g><rect stroke="#16B4F2" stroke-width="3" fill="#FFF" stroke-linecap="round" x="184" y="126" width="12" height="12" rx="4"/><rect stroke="#16B4F2" stroke-width="3" fill="#FFF" stroke-linecap="round" y="126" width="12" height="12" rx="4"/><g stroke-linecap="round"><use fill="#000" filter="url(#s)" xlink:href="#t"/><use stroke="#16B4F2" stroke-width="3" fill="#FFF" xlink:href="#t"/></g><g stroke-linecap="round"><use fill="#000" filter="url(#u)" xlink:href="#v"/><use stroke="#16B4F2" stroke-width="3" fill="#FFF" xlink:href="#v"/></g><g stroke-linecap="round"><use fill="#000" filter="url(#w)" xlink:href="#x"/><use stroke="#16B4F2" stroke-width="3" fill="#FFF" xlink:href="#x"/></g><g transform="translate(92 264)"><rect stroke="#16B4F2" stroke-width="3" fill="#FFF" stroke-linecap="round" y="10" width="12" height="12" rx="6"/><path fill="#16B4F2" d="M4.5 0h3v10h-3z"/></g></g><g transform="translate(239.41 223)"><rect stroke="#16B4F2" stroke-width="3" fill="#FFF" stroke-linecap="round" x="-1.5" y="-1.5" width="27" height="27" rx="13.5"/><path d="M11.927 6.738L7.35 12.975a.3.3 0 0 0 .242.477h3.555a.2.2 0 0 1 .198.226l-.561 4.29a.3.3 0 0 0 .528.23l5.282-6.384a.3.3 0 0 0-.232-.49H12.67a.2.2 0 0 1-.2-.2V6.915a.3.3 0 0 0-.542-.178z" fill="#16B4F2"/></g><path d="M414.392 284.226c-80.261 9.094-69.136-65.238-149-50.214" stroke="#16B4F2" stroke-width="3" stroke-linecap="round"/><path stroke="#16B4F2" stroke-width="3" stroke-linecap="round" stroke-linejoin="round" d="M400.892 277l16 6.5-13.5 11.5"/></g></svg>